<svg xmlns="http://www.w3.org/2000/svg" xmlns:xlink="http://www.w3.org/1999/xlink" version="1.1" x="0px" y="0px" viewBox="0 0 100 125" enable-background="new 0 0 100 100" xml:space="preserve"><g><path fill="#000000" d="M77.311,95.026H13.667c-4.779,0-8.669-3.889-8.669-8.668V22.715c0-4.781,3.89-8.671,8.669-8.671h41.368   c1.275,0,2.305,1.031,2.305,2.305c0,1.275-1.029,2.307-2.305,2.307H13.667c-2.237,0-4.058,1.822-4.058,4.06v63.643   c0,2.238,1.82,4.058,4.058,4.058h63.644c2.238,0,4.061-1.819,4.061-4.058V44.994c0-1.274,1.031-2.305,2.305-2.305   c1.275,0,2.305,1.03,2.305,2.305v41.364C85.98,91.138,82.092,95.026,77.311,95.026z"/><g><path fill="#000000" d="M45.448,73.157c-0.59,0-1.179-0.227-1.631-0.676L27.504,56.167c-0.9-0.9-0.9-2.359,0-3.26L71.379,9.029    c0.9-0.9,2.361-0.9,3.264,0l16.312,16.313c0.432,0.432,0.676,1.018,0.676,1.63c0,0.612-0.244,1.197-0.676,1.63L47.078,72.481    C46.627,72.931,46.038,73.157,45.448,73.157z M32.395,54.536L45.448,67.59l40.617-40.617L73.014,13.92L32.395,54.536z"/><path fill="#000000" d="M21.541,80.749c-0.603,0-1.191-0.236-1.63-0.677c-0.61-0.608-0.828-1.505-0.568-2.327l7.594-23.906    c0.243-0.768,0.871-1.351,1.652-1.541c0.783-0.188,1.606,0.039,2.176,0.609l16.313,16.313c0.57,0.568,0.801,1.393,0.61,2.176    s-0.775,1.407-1.542,1.65L22.239,80.64C22.01,80.712,21.774,80.749,21.541,80.749z M30.184,58.848l-5.098,16.052l16.051-5.099    L30.184,58.848z"/><path fill="#000000" d="M89.326,29.278c-0.609,0-1.197-0.243-1.631-0.675L71.381,12.29c-0.436-0.433-0.674-1.018-0.674-1.63    c0-0.612,0.238-1.198,0.672-1.63c2.613-2.614,6.092-4.055,9.787-4.055l0,0c3.699,0,7.176,1.441,9.789,4.055    c5.395,5.397,5.395,14.177,0,19.574C90.521,29.035,89.938,29.278,89.326,29.278z M76.475,10.865l12.643,12.641    c2.09-3.538,1.613-8.18-1.422-11.215C84.766,9.362,79.949,8.809,76.475,10.865z"/><path fill="#000000" stroke="#2B2B2B" stroke-width="2" stroke-linecap="round" stroke-linejoin="round" stroke-miterlimit="10" d="    M75.719,16.349"/></g></g><text x="0" y="115" fill="#000000" font-size="5px" font-weight="bold" font-family="'Helvetica Neue', Helvetica, Arial-Unicode, Arial, Sans-serif">Created by sunbzy</text><text x="0" y="120" fill="#000000" font-size="5px" font-weight="bold" font-family="'Helvetica Neue', Helvetica, Arial-Unicode, Arial, Sans-serif">from the Noun Project</text></svg>