<svg xmlns:dc="http://purl.org/dc/elements/1.1/" xmlns:cc="http://creativecommons.org/ns#" xmlns:rdf="http://www.w3.org/1999/02/22-rdf-syntax-ns#" xmlns:svg="http://www.w3.org/2000/svg" xmlns="http://www.w3.org/2000/svg" xmlns:sodipodi="http://sodipodi.sourceforge.net/DTD/sodipodi-0.dtd" xmlns:inkscape="http://www.inkscape.org/namespaces/inkscape" version="1.1" x="0px" y="0px" viewBox="0 0 100 125"><g transform="translate(0,-952.36218)"><path style="text-indent:0;text-transform:none;direction:ltr;block-progression:tb;baseline-shift:baseline;color:#000000;enable-background:accumulate;" d="M 68.6875,954.80182 C 80.894,962.38882 89,975.95942 89,991.36432 c 0,22.70698 -17.6782,41.33388 -40,42.87508 l 0,3.125 9,0 c 1.3052,5e-4 2.5449,1.1026 2.875,2.1562 l 2,7 c 0.5214,1.7797 -1.0205,3.8411 -2.875,3.8438 l -28,0 c -1.8545,0 -3.3964,-2.0641 -2.875,-3.8438 l 2,-7 c 0.3613,-1.2325 1.5906,-2.1544 2.875,-2.1562 l 9,0 0,-3.125 c -5.0156,-0.3494 -9.7896,-1.5461 -14.1875,-3.4688 -1.5288,-0.5593 -2.369,-2.5126 -1.7237,-4.0071 0.6454,-1.4945 2.6433,-2.2222 4.0987,-1.4929 4.5368,1.9834 9.5427,3.0938 14.8125,3.0938 20.4701,0 37,-16.5299 37,-37.00008 0,-13.3003 -6.9977,-24.941 -17.5,-31.4688 -1.1335,-0.6593 -1.7315,-2.1209 -1.3853,-3.3856 0.9906,-2.21 2.757,-2.593 4.5728,-1.7081 z M 46,956.36432 c 19.2944,0 35,15.7056 35,35 0,19.29448 -15.7056,35.00008 -35,35.00008 -19.2945,0 -35,-15.7056 -35,-35.00008 0,-19.2944 15.7055,-35 35,-35 z m 0,6 c -3.5956,0 -7.0452,0.655 -10.2188,1.8438 -1.8155,3.2781 -1.7237,6.5834 -1.7812,9.2187 -0.054,2.4734 0.9991,3.8102 2.5625,6.3437 0.7146,1.158 2.0698,2.3734 3.5313,3.6563 1.4614,1.2829 3.296,2.6053 3.8437,5.3437 0.5359,2.6795 0.9416,5.5517 1.6563,7.375 0.3573,0.9117 0.763,1.4918 1.0937,1.7813 0.3307,0.2895 0.5567,0.439 1.3125,0.4375 0.4836,-10e-4 0.602,-0.082 0.9688,-0.4062 0.3665,-0.3248 0.8548,-1.0055 1.3437,-1.9688 1.1796,-2.3246 1.36,-4.1624 1.375,-6.375 0.015,-2.2126 -0.2225,-4.7981 0.375,-7.8438 0.6671,-3.4004 2.7209,-5.5506 4.0625,-7.0624 1.3416,-1.5119 1.875,-2.1553 1.875,-3.3438 0,-3.8442 -0.819,-5.9162 -2.5938,-7.4375 -2.9481,-1.006 -6.1113,-1.5625 -9.4062,-1.5625 z m -17.75,6.0312 c -6.8571,5.2974 -11.25,13.6058 -11.25,22.9688 0,3.5956 0.655,7.0452 1.8438,10.21888 2.4778,-0.9061 5.2381,-1.053 8,-1.2188 0.062,0 0.125,0 0.1874,0 5.2805,0 9.4789,1.7494 11.2188,5.3438 1.7191,3.5513 0.1786,7.7629 -3.0938,10.75 l 0.031,0.031 c -0.042,0.042 -0.083,0.053 -0.125,0.094 -0.4202,0.4119 -0.8196,0.7958 -1.2187,1.125 3.6942,1.7014 7.8122,2.6562 12.1562,2.6562 16.0518,0 29,-12.9482 29,-29.00008 0,-9.3402 -4.3901,-17.6072 -11.2188,-22.9062 0.1258,0.9455 0.2188,1.9025 0.2188,2.9062 0,3.3829 -1.9628,5.7211 -3.375,7.3125 -1.4122,1.5914 -2.3707,2.6351 -2.6875,4.25 -0.4004,2.0408 -0.2324,4.1177 -0.25,6.7187 -0.018,2.6011 -0.308,5.7283 -2,9.0626 -0.6711,1.32248 -1.5052,2.64748 -2.75,3.75008 -1.2448,1.1025 -3.0278,1.9024 -4.9375,1.9062 -2.0192,0 -3.9354,-0.7593 -5.2812,-1.9375 -1.3461,-1.1782 -2.1447,-2.62904 -2.7188,-4.09378 -1.1482,-2.9295 -1.4734,-6.0857 -1.9375,-8.4063 0.03,0.1509 -0.5592,-0.7901 -1.9375,-2 -1.3783,-1.2099 -3.2784,-2.7165 -4.6875,-5 -1.4006,-2.2698 -3.5222,-5.261 -3.4375,-9.625 10e-5,-0.01 -10e-5,-0.024 0,-0.031 0.023,-1.089 -0.014,-2.8381 0.25,-4.875 z m -1.2188,37.96888 c -2.0386,0.136 -3.9641,0.4727 -5.375,0.8125 1.7581,2.7049 3.9635,5.0846 6.5,7.0625 0.044,-0.021 0.023,-6e-4 0.094,-0.031 0.5096,-0.2186 1.4346,-0.7201 2.6875,-1.9688 0.04,-0.043 0.082,-0.085 0.125,-0.125 2.1194,-1.8908 2.144,-3.0965 1.8125,-3.7812 -0.3315,-0.6848 -1.8877,-1.9688 -5.8438,-1.9688 z m 28.7188,37 -19.5,0 -0.2812,1 20.0624,0 z" fill="#000000" fill-opacity="1" stroke="none" marker="none" visibility="visible" display="inline" overflow="visible"/></g><text x="0" y="115" fill="#000000" font-size="5px" font-weight="bold" font-family="'Helvetica Neue', Helvetica, Arial-Unicode, Arial, Sans-serif">Created by iconsphere</text><text x="0" y="120" fill="#000000" font-size="5px" font-weight="bold" font-family="'Helvetica Neue', Helvetica, Arial-Unicode, Arial, Sans-serif">from the Noun Project</text></svg>