<svg xmlns:dc="http://purl.org/dc/elements/1.1/" xmlns:cc="http://creativecommons.org/ns#" xmlns:rdf="http://www.w3.org/1999/02/22-rdf-syntax-ns#" xmlns:svg="http://www.w3.org/2000/svg" xmlns="http://www.w3.org/2000/svg" xmlns:sodipodi="http://sodipodi.sourceforge.net/DTD/sodipodi-0.dtd" xmlns:inkscape="http://www.inkscape.org/namespaces/inkscape" version="1.1" x="0px" y="0px" viewBox="0 0 100 125"><g transform="translate(0,-952.36218)"><path style="color:#000000;enable-background:accumulate;" d="m 29,958.36216 c -12.74201,0 -23,10.258 -23,23 l 0,42.00004 c 0,12.742 10.25799,23 23,23 l 42,0 c 12.74201,0 23,-10.258 23,-23 l 0,-42.00004 c 0,-12.742 -10.25799,-23 -23,-23 l -42,0 z m 5,8 32,0 c 11.04535,0 20,8.9547 20,20 l 0,32.00004 c 0,11.0453 -8.95465,20 -20,20 l -32,0 c -11.04535,0 -20,-8.9547 -20,-20 l 0,-32.00004 c 0,-11.0453 8.95465,-20 20,-20 z m 0,4 c -8.89854,0 -16,7.1015 -16,16 l 0,32.00004 c 0,8.8985 7.10146,16 16,16 l 32,0 c 8.89854,0 16,-7.1015 16,-16 l 0,-32.00004 c 0,-8.8985 -7.10146,-16 -16,-16 l -32,0 z m 36,6 c 2.2091,0 4,1.7908 4,4 0,2.2091 -1.7909,4 -4,4 -2.2092,0 -4,-1.7909 -4,-4 0,-2.2092 1.7908,-4 4,-4 z m -20,8 c 9.91747,0 18,8.0826 18,18.00004 0,9.9174 -8.08253,18 -18,18 -9.91745,0 -18,-8.0826 -18,-18 0,-9.91744 8.08255,-18.00004 18,-18.00004 z m 0,4 c -7.75567,0 -14,6.2444 -14,14.00004 0,7.7556 6.24433,14 14,14 7.75569,0 14,-6.2444 14,-14 0,-7.75564 -6.24431,-14.00004 -14,-14.00004 z" fill="#000000" stroke="none" marker="none" visibility="visible" display="inline" overflow="visible"/></g><text x="0" y="115" fill="#000000" font-size="5px" font-weight="bold" font-family="'Helvetica Neue', Helvetica, Arial-Unicode, Arial, Sans-serif">Created by Aybige</text><text x="0" y="120" fill="#000000" font-size="5px" font-weight="bold" font-family="'Helvetica Neue', Helvetica, Arial-Unicode, Arial, Sans-serif">from the Noun Project</text></svg>