<svg xmlns="http://www.w3.org/2000/svg" xmlns:xlink="http://www.w3.org/1999/xlink" xml:space="preserve" version="1.0" style="shape-rendering:geometricPrecision;text-rendering:geometricPrecision;image-rendering:optimizeQuality;" viewBox="0 0 23115 28893.75" x="0px" y="0px" fill-rule="evenodd" clip-rule="evenodd"><g><path class="fil0" d="M14539 7300c352,-352 924,-352 1276,0 352,352 352,924 0,1276l-2982 2982 2982 2981c352,353 352,924 0,1276 -352,352 -924,352 -1276,0l-2982 -2982 -2981 2982c-353,352 -924,352 -1276,0 -352,-352 -352,-923 0,-1276l2982 -2981 -2982 -2982c-352,-352 -352,-924 0,-1276 352,-352 923,-352 1276,0l2981 2982 2982 -2982zm5191 -3915c2256,2257 3385,5215 3385,8173 0,2957 -1129,5915 -3385,8172 -2257,2257 -5215,3385 -8173,3385 -2957,0 -5915,-1128 -8172,-3385 -2257,-2257 -3385,-5215 -3385,-8172 0,-2958 1128,-5916 3385,-8173 2257,-2256 5215,-3385 8172,-3385 2958,0 5916,1129 8173,3385zm1581 8173c0,-2496 -953,-4993 -2857,-6897 -1904,-1904 -4401,-2857 -6897,-2857 -2496,0 -4992,953 -6896,2857 -1904,1904 -2857,4401 -2857,6897 0,2496 953,4992 2857,6896 1904,1904 4400,2857 6896,2857 2496,0 4993,-953 6897,-2857 1904,-1904 2857,-4400 2857,-6896z"/></g><text x="0" y="23130" fill="#000000" font-size="5px" font-weight="bold" font-family="'Helvetica Neue', Helvetica, Arial-Unicode, Arial, Sans-serif">Created by Ioannis Malikoutsakis</text><text x="0" y="23135" fill="#000000" font-size="5px" font-weight="bold" font-family="'Helvetica Neue', Helvetica, Arial-Unicode, Arial, Sans-serif">from the Noun Project</text></svg>