<svg xmlns="http://www.w3.org/2000/svg" xmlns:xlink="http://www.w3.org/1999/xlink" viewBox="0 0 44 76.25" version="1.1" x="0px" y="0px"><title>Group 61</title><desc>Created with Sketch.</desc><g stroke="none" stroke-width="1" fill="none" fill-rule="evenodd"><g transform="translate(-1071.000000, -1011.000000)" fill="#000000"><g transform="translate(1071.000000, 1011.000000)"><path d="M11.9795,8.1175 C11.7235,8.1175 11.4675,8.0195 11.2725,7.8245 L5.6155,2.1675 C5.2245,1.7765 5.2245,1.1435 5.6155,0.7535 C6.0055,0.3625 6.6385,0.3625 7.0295,0.7535 L12.6865,6.4105 C13.0775,6.8015 13.0775,7.4335 12.6865,7.8245 C12.4915,8.0195 12.2355,8.1175 11.9795,8.1175"/><path d="M41.6777,37.8157 C41.4217,37.8157 41.1657,37.7177 40.9707,37.5227 L35.3137,31.8657 C34.9227,31.4747 34.9227,30.8417 35.3137,30.4517 C35.7037,30.0607 36.3367,30.0607 36.7277,30.4517 L42.3847,36.1087 C42.7757,36.4997 42.7757,37.1317 42.3847,37.5227 C42.1897,37.7177 41.9337,37.8157 41.6777,37.8157"/><path d="M24.0039,41.9993 C18.1159,41.9993 12.2279,39.8033 7.7429,35.4083 C3.4049,31.1563 0.9989,25.4463 0.9679,19.3303 C0.9369,13.1143 3.3399,7.2703 7.7359,2.8743 C8.7289,1.8823 9.8129,0.9783 10.9579,0.1883 C11.4109,-0.1247 12.0339,-0.0107 12.3489,0.4443 C12.6619,0.8983 12.5479,1.5213 12.0929,1.8353 C11.0469,2.5563 10.0579,3.3823 9.1499,4.2883 C5.1349,8.3053 2.9399,13.6433 2.9679,19.3193 C2.9959,24.8983 5.1899,30.1043 9.1439,33.9803 C17.3389,42.0103 30.6689,42.0133 38.8569,33.9803 C39.7239,33.1293 40.5479,32.1403 41.3049,31.0423 C41.6179,30.5873 42.2409,30.4733 42.6949,30.7863 C43.1499,31.1003 43.2649,31.7233 42.9509,32.1773 C42.1219,33.3803 41.2159,34.4673 40.2569,35.4083 C35.7769,39.8023 29.8909,41.9993 24.0039,41.9993"/><path d="M13.1709,58.012 L34.8289,58.012 C34.4159,56.848 33.3039,56.012 31.9999,56.012 L15.9999,56.012 C14.6959,56.012 13.5839,56.848 13.1709,58.012 M35.9999,60.012 L11.9999,60.012 C11.4469,60.012 10.9999,59.565 10.9999,59.012 C10.9999,56.255 13.2429,54.012 15.9999,54.012 L31.9999,54.012 C34.7569,54.012 36.9999,56.255 36.9999,59.012 C36.9999,59.565 36.5529,60.012 35.9999,60.012"/><path d="M23,4.012 C18.727,4.012 14.709,5.676 11.687,8.699 C8.664,11.721 7,15.739 7,20.012 C7,24.285 8.664,28.303 11.687,31.325 C14.709,34.348 18.727,36.012 23,36.012 C27.273,36.012 31.291,34.348 34.313,31.325 C37.336,28.303 39,24.285 39,20.012 C39,15.739 37.336,11.721 34.313,8.699 C31.291,5.676 27.273,4.012 23,4.012 M23,38.012 C18.192,38.012 13.672,36.14 10.272,32.74 C6.872,29.34 5,24.82 5,20.012 C5,15.204 6.872,10.684 10.272,7.284 C13.672,3.884 18.192,2.012 23,2.012 C27.808,2.012 32.328,3.884 35.728,7.284 C39.128,10.684 41,15.204 41,20.012 C41,24.82 39.128,29.34 35.728,32.74 C32.328,36.14 27.808,38.012 23,38.012"/><path d="M26.0391,22.5667 C27.1491,22.5667 28.0051,23.5037 29.8511,26.4857 C29.8941,26.5577 29.9311,26.6347 29.9551,26.7167 C30.0501,27.0137 30.2421,27.3647 30.3811,27.5047 C30.4971,27.4217 30.7571,27.1807 31.1291,26.5207 C31.4481,25.9537 31.7311,25.3767 32.0071,24.8137 C33.2671,22.2417 34.6881,19.3557 38.9801,19.8247 C38.9331,15.6537 37.2651,11.6497 34.3131,8.6987 C34.1931,8.5787 34.0721,8.4617 33.9491,8.3457 C34.0281,9.3737 33.8731,10.3577 33.2711,11.0837 C32.5521,11.9547 31.3931,12.2587 29.8341,11.9987 C29.6841,11.9727 29.5411,11.9127 29.4171,11.8247 C28.5851,11.2297 27.4731,10.8257 27.1691,11.0037 C27.0611,11.0687 26.8191,11.5327 26.9921,12.8847 C27.0141,13.0517 26.9921,13.2217 26.9311,13.3787 C26.7431,13.8537 25.0681,17.8937 22.2361,18.0117 C22.1671,18.0647 22.0761,18.1597 22.0441,18.3077 C21.9941,18.5347 21.9691,19.4207 23.7341,21.3337 C25.0241,22.7317 25.3521,22.6617 25.5081,22.6287 C25.6931,22.5887 25.8691,22.5667 26.0391,22.5667 M30.3691,29.5407 C30.3051,29.5407 30.2391,29.5367 30.1731,29.5297 C28.8881,29.3917 28.2721,27.9637 28.0881,27.4397 C26.7011,25.2087 26.1581,24.6917 25.9791,24.5727 C25.9621,24.5767 25.9441,24.5807 25.9261,24.5847 C24.8901,24.8067 23.9981,24.5697 22.2661,22.6907 C20.4721,20.7477 19.7671,19.1477 20.1091,17.7987 C20.4331,16.5237 21.5511,16.1087 21.6781,16.0657 C21.7981,16.0237 21.9251,16.0047 22.0531,16.0127 C23.2641,16.0777 24.4631,14.0497 24.9771,12.8687 C24.7951,11.0607 25.1871,9.8567 26.1461,9.2857 C27.6231,8.4087 29.6391,9.5677 30.3761,10.0567 C30.8391,10.1127 31.4701,10.1247 31.7311,9.8077 C32.1531,9.2987 32.0141,7.8577 31.3771,6.1357 C31.2261,5.7317 31.3531,5.2757 31.6911,5.0067 C32.0311,4.7377 32.5041,4.7177 32.8631,4.9537 C33.8951,5.6297 34.8591,6.4157 35.7271,7.2847 C39.3461,10.9017 41.2501,15.9227 40.9511,21.0607 C40.9351,21.3547 40.7891,21.6257 40.5551,21.8017 C40.3201,21.9787 40.0181,22.0447 39.7331,21.9787 C36.0291,21.1417 35.1921,22.8577 33.8031,25.6937 C33.5111,26.2897 33.2101,26.9017 32.8711,27.5037 C32.5801,28.0187 31.7231,29.5407 30.3691,29.5407"/><path d="M19.499,4.4163 C19.014,5.6603 18.481,6.8493 18.013,7.8483 C19.352,7.4483 20.846,7.2273 21.91,7.1093 C21.949,6.6173 22.11,6.1453 22.391,5.7133 C22.848,5.0073 23.58,4.4773 24.363,4.0813 C22.744,3.9463 21.104,4.0573 19.499,4.4163 M15.806,11.2283 C15.592,11.2283 15.411,11.1493 15.284,11.0713 C14.475,10.5733 14.778,9.9493 15.443,8.5813 C16.034,7.3663 17.022,5.3323 17.817,3.2153 C17.933,2.9093 18.188,2.6793 18.505,2.5983 C21.761,1.7633 25.166,1.8443 28.353,2.8323 C28.86,2.9893 29.156,3.5173 29.026,4.0313 L28.97,4.2563 C28.87,4.6513 28.54,4.9463 28.137,5.0023 C26.902,5.1743 24.706,5.8143 24.069,6.8013 C23.887,7.0823 23.853,7.3693 23.959,7.7293 C24.045,8.0203 23.994,8.3323 23.822,8.5803 C23.651,8.8283 23.376,8.9863 23.075,9.0093 C20.484,9.2053 17.343,9.8983 16.796,10.6173 C16.438,11.0873 16.092,11.2283 15.806,11.2283"/><path d="M10.9795,7.9915 L10.9895,7.9915 L10.9795,7.9915 Z M7.0185,20.0125 C8.2185,20.0475 9.0685,19.7475 9.5425,19.1845 C10.2035,18.4015 10.0185,17.2055 10.0165,17.1935 C9.7485,14.3945 10.0255,11.9785 10.4615,10.0755 C8.2385,12.8875 7.0175,16.3915 7.0185,20.0125 L7.0185,20.0125 Z M7.1085,22.0125 L6.9875,22.0125 L6.0475,22.0125 C5.5185,22.0125 5.0815,21.5985 5.0495,21.0705 C4.7485,15.9295 6.6515,10.9055 10.2715,7.2855 C10.8015,6.7545 11.4015,6.2385 12.1595,5.6645 C12.5285,5.3845 13.0425,5.3935 13.4005,5.6895 C13.7575,5.9845 13.8655,6.4865 13.6615,6.9025 C13.1465,7.9485 11.5045,11.7625 11.9955,16.9175 C11.9995,16.9175 12.3565,18.9505 11.0715,20.4735 C10.2095,21.4955 8.8765,22.0125 7.1085,22.0125 L7.1085,22.0125 Z"/><path d="M12.918,32.4085 C16.505,35.3295 21.175,36.5445 25.726,35.7605 C25,34.5285 23.258,32.0505 20.983,32.0125 C17.367,31.9505 16.147,29.4375 16.006,28.1175 C16.001,28.0705 15.999,28.0215 16.001,27.9735 C16.007,27.7255 15.999,25.4755 13.785,24.9885 C13.604,24.9495 13.561,24.9905 13.512,25.0355 C12.762,25.7215 12.637,29.1315 12.992,31.8845 C13.015,32.0625 12.989,32.2445 12.918,32.4085 M22.999,37.9935 C18.619,37.9935 14.343,36.3945 11.008,33.4065 C10.672,33.1045 10.579,32.6165 10.78,32.2145 L10.971,31.8335 C10.786,30.2255 10.372,25.1985 12.161,23.5595 C12.715,23.0535 13.441,22.8625 14.215,23.0355 C17.264,23.7065 18.021,26.4895 18.002,27.9535 C18.064,28.3045 18.489,29.9695 21.017,30.0125 C25.279,30.0845 27.801,35.3635 27.905,35.5885 C27.933,35.6455 27.954,35.7065 27.97,35.7685 L28.089,36.2445 C28.153,36.5025 28.113,36.7745 27.977,37.0025 C27.84,37.2295 27.618,37.3935 27.36,37.4585 C25.916,37.8175 24.451,37.9935 22.999,37.9935"/><path d="M22.0742,54.012 L25.9262,54.012 L25.0692,42.012 L22.9302,42.012 L22.0742,54.012 Z M27.0002,56.012 L21.0002,56.012 C20.7222,56.012 20.4572,55.897 20.2682,55.694 C20.0792,55.491 19.9822,55.218 20.0032,54.941 L21.0032,40.941 C21.0402,40.417 21.4752,40.012 22.0002,40.012 L26.0002,40.012 C26.5242,40.012 26.9602,40.417 26.9972,40.941 L27.9972,54.941 C28.0172,55.218 27.9212,55.491 27.7312,55.694 C27.5432,55.897 27.2772,56.012 27.0002,56.012 L27.0002,56.012 Z"/></g></g></g><text x="0" y="76" fill="#000000" font-size="5px" font-weight="bold" font-family="'Helvetica Neue', Helvetica, Arial-Unicode, Arial, Sans-serif">Created by Ben Davis</text><text x="0" y="81" fill="#000000" font-size="5px" font-weight="bold" font-family="'Helvetica Neue', Helvetica, Arial-Unicode, Arial, Sans-serif">from the Noun Project</text></svg>