<svg xmlns="http://www.w3.org/2000/svg" xmlns:xlink="http://www.w3.org/1999/xlink" version="1.1" x="0px" y="0px" viewBox="0 0 48 60" style="enable-background:new 0 0 48 48;" xml:space="preserve"><g><g><path style="" d="    M18,32V6c0-1.657,1.344-3,3-3s3,1.343,3,3v17" fill="none" stroke="#000000" stroke-width="2" stroke-linecap="round" stroke-linejoin="round" stroke-miterlimit="10"/><path style="" d="    M24,13V4c0-1.657,1.344-3,3-3s3,1.343,3,3v20" fill="none" stroke="#000000" stroke-width="2" stroke-linecap="round" stroke-linejoin="round" stroke-miterlimit="10"/><path style="" d="    M30,26v-7c0-1.657,1.344-3,3-3s3,1.343,3,3v10" fill="none" stroke="#000000" stroke-width="2" stroke-linecap="round" stroke-linejoin="round" stroke-miterlimit="10"/><path style="" d="    M36,29v-6c0-1.657,1.344-3,3-3s3,1.343,3,3v9c0,8.284-6.716,15-15,15s-15-6.716-15-15v-7c0-3.313,2.687-6,6-6" fill="none" stroke="#000000" stroke-width="2" stroke-linecap="round" stroke-linejoin="round" stroke-miterlimit="10"/></g><g><polyline style="" points="    40,3 42,5 40,7   " fill="none" stroke="#000000" stroke-width="2" stroke-linecap="round" stroke-linejoin="round" stroke-miterlimit="10"/><line style="" x1="42" y1="5" x2="36" y2="5" fill="none" stroke="#000000" stroke-width="2" stroke-linecap="round" stroke-linejoin="round" stroke-miterlimit="10"/></g><g><polyline style="" points="    8,7 6,5 8,3   " fill="none" stroke="#000000" stroke-width="2" stroke-linecap="round" stroke-linejoin="round" stroke-miterlimit="10"/><line style="" x1="6" y1="5" x2="12" y2="5" fill="none" stroke="#000000" stroke-width="2" stroke-linecap="round" stroke-linejoin="round" stroke-miterlimit="10"/></g></g><text x="0" y="63" fill="#000000" font-size="5px" font-weight="bold" font-family="'Helvetica Neue', Helvetica, Arial-Unicode, Arial, Sans-serif">Created by Norbert Kucsera</text><text x="0" y="68" fill="#000000" font-size="5px" font-weight="bold" font-family="'Helvetica Neue', Helvetica, Arial-Unicode, Arial, Sans-serif">from the Noun Project</text></svg>