<svg xmlns:dc="http://purl.org/dc/elements/1.1/" xmlns:cc="http://creativecommons.org/ns#" xmlns:rdf="http://www.w3.org/1999/02/22-rdf-syntax-ns#" xmlns:svg="http://www.w3.org/2000/svg" xmlns="http://www.w3.org/2000/svg" xmlns:sodipodi="http://sodipodi.sourceforge.net/DTD/sodipodi-0.dtd" xmlns:inkscape="http://www.inkscape.org/namespaces/inkscape" version="1.1" x="0px" y="0px" viewBox="0 0 100 125"><g transform="translate(0,-952.36218)"><path style="font-size:medium;font-style:normal;font-variant:normal;font-weight:normal;font-stretch:normal;text-indent:0;text-align:start;text-decoration:none;line-height:normal;letter-spacing:normal;word-spacing:normal;text-transform:none;direction:ltr;block-progression:tb;writing-mode:lr-tb;text-anchor:start;baseline-shift:baseline;opacity:1;color:#000000;fill:#000000;fill-opacity:1;stroke:none;stroke-width:6;marker:none;visibility:visible;display:inline;overflow:visible;enable-background:accumulate;font-family:Sans;-inkscape-font-specification:Sans" d="M 50 5 C 25.18272 5 5 25.1827 5 50 C 5 74.8173 25.18272 95 50 95 C 74.81728 95 95 74.8173 95 50 C 95 25.1827 74.81728 5 50 5 z M 50 11 C 71.574639 11 89 28.42534 89 50 C 89 71.5746 71.574639 89 50 89 C 28.425361 89 11 71.5746 11 50 C 11 28.42534 28.425361 11 50 11 z M 56 20 C 52.033249 20 48.110329 21.15074 45.0625 23.6875 C 42.014671 26.22426 40 30.23062 40 35 L 40 41 L 36 41 A 3.0003 3.0003 0 0 0 33 44 L 33 54.09375 A 3.0003 3.0003 0 0 0 36.03125 57.09375 L 40 57.03125 L 40 81 A 3.0003 3.0003 0 0 0 43 84 L 53 84 A 3.0003 3.0003 0 0 0 56 81 L 56 57 L 63 57 A 3.0003 3.0003 0 0 0 66 54 L 66 44 A 3.0003 3.0003 0 0 0 63 41 L 56 41 L 56 36 L 63 36 A 3.0003 3.0003 0 0 0 66 33 L 66 23 A 3.0003 3.0003 0 0 0 63 20 L 56 20 z M 56 26 L 60 26 L 60 30 L 53 30 A 3.0003 3.0003 0 0 0 50 33 L 50 44 A 3.0003 3.0003 0 0 0 53 47 L 60 47 L 60 51 L 53 51 A 3.0003 3.0003 0 0 0 50 54 L 50 78 L 46 78 L 46 54 A 3.0003 3.0003 0 0 0 42.96875 51 L 39 51.0625 L 39 47 L 43 47 A 3.0003 3.0003 0 0 0 46 44 L 46 35 C 46 31.80337 47.138007 29.78424 48.90625 28.3125 C 50.674493 26.84076 53.231041 26 56 26 z " transform="translate(0,952.36218)"/></g><text x="0" y="115" fill="#000000" font-size="5px" font-weight="bold" font-family="'Helvetica Neue', Helvetica, Arial-Unicode, Arial, Sans-serif">Created by rivda</text><text x="0" y="120" fill="#000000" font-size="5px" font-weight="bold" font-family="'Helvetica Neue', Helvetica, Arial-Unicode, Arial, Sans-serif">from the Noun Project</text></svg>