<svg xmlns="http://www.w3.org/2000/svg" xmlns:xlink="http://www.w3.org/1999/xlink" version="1.1" x="0px" y="0px" viewBox="0 0 100 125" style="enable-background:new 0 0 100 100;" xml:space="preserve"><g><path d="M61.9,34.5H38.1c1.7,2.3,4,4.4,6.9,6l0.4,0.2c2.1,1.2,3.7,3,4.6,5.1c0.9-2.1,2.5-3.9,4.6-5.1l0.4-0.2   C57.9,38.8,60.2,36.7,61.9,34.5z"/><path d="M50,54.2c-0.9,2.1-2.5,3.9-4.6,5.1L45,59.5c-6.4,3.7-10.2,9.6-10.2,15.9v4h30.6v-4c0-6.3-3.8-12.3-10.2-15.9l-0.4-0.2   C52.5,58,50.9,56.2,50,54.2z"/><path d="M58.6,47.6l0.4-0.2c8.9-5.1,14.3-13.7,14.3-22.8v-7.8h1.3c1.8,0,3.3-1.5,3.3-3.3v0c0-1.8-1.5-3.3-3.3-3.3H25.4   c-1.8,0-3.3,1.5-3.3,3.3v0c0,1.8,1.5,3.3,3.3,3.3h1.3v7.8c0,9.2,5.4,17.7,14.3,22.8l0.4,0.2c2,1.1,2,3.6,0,4.7L41,52.5   c-8.9,5.1-14.3,13.7-14.3,22.8v8h-1.3c-1.8,0-3.3,1.5-3.3,3.3v0c0,1.8,1.5,3.3,3.3,3.3h49.2c1.8,0,3.3-1.5,3.3-3.3v0   c0-1.8-1.5-3.3-3.3-3.3h-1.3v-8c0-9.2-5.4-17.7-14.3-22.8l-0.4-0.2C56.6,51.2,56.6,48.7,58.6,47.6z M56.6,55.8L57,56   c7.7,4.4,12.3,11.6,12.3,19.4v8H30.7v-8c0-7.8,4.6-15,12.3-19.4l0.4-0.2c2.2-1.2,3.5-3.4,3.5-5.8s-1.3-4.6-3.5-5.8L43,43.9   c-7.7-4.4-12.3-11.6-12.3-19.4v-7.8h38.5v7.8c0,7.8-4.6,15-12.3,19.4l-0.4,0.2c-2.2,1.2-3.5,3.4-3.5,5.8S54.4,54.5,56.6,55.8z"/></g><text x="0" y="115" fill="#000000" font-size="5px" font-weight="bold" font-family="'Helvetica Neue', Helvetica, Arial-Unicode, Arial, Sans-serif">Created by Musmellow</text><text x="0" y="120" fill="#000000" font-size="5px" font-weight="bold" font-family="'Helvetica Neue', Helvetica, Arial-Unicode, Arial, Sans-serif">from the Noun Project</text></svg>