<svg xmlns:dc="http://purl.org/dc/elements/1.1/" xmlns:cc="http://creativecommons.org/ns#" xmlns:rdf="http://www.w3.org/1999/02/22-rdf-syntax-ns#" xmlns:svg="http://www.w3.org/2000/svg" xmlns="http://www.w3.org/2000/svg" xmlns:sodipodi="http://sodipodi.sourceforge.net/DTD/sodipodi-0.dtd" xmlns:inkscape="http://www.inkscape.org/namespaces/inkscape" version="1.1" x="0px" y="0px" viewBox="0 0 100 125"><g transform="translate(0,-952.36218)"><path style="text-indent:0;text-transform:none;direction:ltr;block-progression:tb;baseline-shift:baseline;color:#000000;enable-background:accumulate;" d="m 49.188324,974.24378 -31.02473,27.02532 c -0.79457,0.6883 -0.89175,2.0382 -0.20398,2.8334 0.68777,0.7952 2.0365,0.8925 2.83107,0.2041 l 29.67991,-25.86662 28.71038,25.83542 c 0.77822,0.7048 2.12697,0.6372 2.83111,-0.1416 0.70415,-0.7788 0.63676,-2.1287 -0.14146,-2.8334 l -30.02393,-27.02542 c -0.84443,-0.5451 -1.84522,-0.5451 -2.65837,-0.031 z m 23.33109,25.3655 0,27.24452 -13.01037,0 c 0,-5.3445 0,-10.689 0,-16.0335 -6.47829,0 -13.27006,0 -18.85878,0 -0.0806,5.3443 -0.12816,10.6889 -0.1876,16.0335 l -12.97909,0 0,-27.05662 -4.00319,3.47612 c 0,9.1963 0,18.3926 0,27.5889 7.19553,0 14.72076,0 20.92292,0 0.0798,-5.3443 0.12804,-10.689 0.1876,-16.0335 l 10.91495,0 c 0,5.3444 0,10.689 0,16.0335 7.22814,0 14.78671,0 21.01676,0 0,-9.2172 0,-18.4345 0,-27.6516 z" fill="#000000" fill-opacity="1" stroke="none" marker="none" visibility="visible" display="inline" overflow="visible"/></g><text x="0" y="115" fill="#000000" font-size="5px" font-weight="bold" font-family="'Helvetica Neue', Helvetica, Arial-Unicode, Arial, Sans-serif">Created by AFY Studio</text><text x="0" y="120" fill="#000000" font-size="5px" font-weight="bold" font-family="'Helvetica Neue', Helvetica, Arial-Unicode, Arial, Sans-serif">from the Noun Project</text></svg>