<svg xmlns="http://www.w3.org/2000/svg" xmlns:xlink="http://www.w3.org/1999/xlink" version="1.1" x="0px" y="0px" viewBox="0 0 100 125" style="enable-background:new 0 0 100 100;" xml:space="preserve"><path d="M19.448,27.598h22.757c0.829,0,1.5-0.671,1.5-1.5s-0.671-1.5-1.5-1.5H19.448c-0.829,0-1.5,0.671-1.5,1.5  S18.62,27.598,19.448,27.598z"/><path d="M19.448,37.028h22.757c0.829,0,1.5-0.671,1.5-1.5s-0.671-1.5-1.5-1.5H19.448c-0.829,0-1.5,0.671-1.5,1.5  S18.62,37.028,19.448,37.028z"/><path d="M19.448,46.458h22.757c0.829,0,1.5-0.671,1.5-1.5s-0.671-1.5-1.5-1.5H19.448c-0.829,0-1.5,0.671-1.5,1.5  S18.62,46.458,19.448,46.458z"/><path d="M19.448,55.888h22.757c0.829,0,1.5-0.671,1.5-1.5s-0.671-1.5-1.5-1.5H19.448c-0.829,0-1.5,0.671-1.5,1.5  S18.62,55.888,19.448,55.888z"/><path d="M19.448,65.317h22.757c0.829,0,1.5-0.671,1.5-1.5s-0.671-1.5-1.5-1.5H19.448c-0.829,0-1.5,0.671-1.5,1.5  S18.62,65.317,19.448,65.317z"/><path d="M57.795,46.458h22.757c0.829,0,1.5-0.671,1.5-1.5s-0.671-1.5-1.5-1.5H57.795c-0.829,0-1.5,0.671-1.5,1.5  S56.966,46.458,57.795,46.458z"/><path d="M57.795,55.888h22.757c0.829,0,1.5-0.671,1.5-1.5s-0.671-1.5-1.5-1.5H57.795c-0.829,0-1.5,0.671-1.5,1.5  S56.966,55.888,57.795,55.888z"/><path d="M57.795,65.317h22.757c0.829,0,1.5-0.671,1.5-1.5s-0.671-1.5-1.5-1.5H57.795c-0.829,0-1.5,0.671-1.5,1.5  S56.966,65.317,57.795,65.317z"/><path d="M89.847,21.594V21.17c0-2.235-1.818-4.054-4.054-4.054h-16.62h-8.738h-5.508c-1.977,0-3.748,0.899-4.928,2.308  c-1.18-1.409-2.95-2.308-4.928-2.308H14.207c-2.235,0-4.054,1.818-4.054,4.054v0.423C7.206,22.275,5,24.916,5,28.067v43.048  c0,3.667,2.983,6.65,6.65,6.65h31.381c0.678,2.927,3.301,5.118,6.431,5.118h1.075c3.13,0,5.753-2.191,6.431-5.118H88.35  c3.667,0,6.65-2.983,6.65-6.65V28.067C95,24.916,92.794,22.275,89.847,21.594z M67.673,20.117v5.949  c0,0.012-0.003,0.022-0.003,0.034s0.003,0.022,0.003,0.034v9.362c0,0.012-0.003,0.022-0.003,0.034s0.003,0.022,0.003,0.034v2.451  l-1.974-1.468c-0.266-0.198-0.58-0.296-0.895-0.296s-0.629,0.099-0.896,0.296l-1.973,1.468v-2.441c0-0.015,0.004-0.029,0.004-0.044  s-0.004-0.029-0.004-0.044v-9.342c0-0.015,0.004-0.029,0.004-0.044s-0.004-0.029-0.004-0.044v-5.94H67.673z M54.928,20.117h4.008  V24.6H57.79c-0.829,0-1.5,0.671-1.5,1.5s0.671,1.5,1.5,1.5h1.146v6.43H57.79c-0.829,0-1.5,0.671-1.5,1.5s0.671,1.5,1.5,1.5h1.146V41  c0,0.567,0.32,1.086,0.827,1.34c0.213,0.107,0.443,0.16,0.673,0.16c0.316,0,0.631-0.1,0.896-0.296l3.473-2.584l3.474,2.584  c0.456,0.339,1.063,0.391,1.568,0.137c0.507-0.254,0.827-0.773,0.827-1.34v-3.97h9.876c0.829,0,1.5-0.671,1.5-1.5  s-0.671-1.5-1.5-1.5h-9.876V27.6h9.876c0.829,0,1.5-0.671,1.5-1.5s-0.671-1.5-1.5-1.5h-9.876v-4.483h15.12  c0.581,0,1.054,0.473,1.054,1.054v47.575c0,0.581-0.473,1.053-1.054,1.053h-33.24c-0.581,0-1.053-0.473-1.053-1.053V23.544  C51.5,21.654,53.038,20.117,54.928,20.117z M13.153,21.17c0-0.581,0.473-1.054,1.054-1.054h30.865c1.89,0,3.428,1.538,3.428,3.428  v45.201c0,0.581-0.473,1.053-1.053,1.053h-33.24c-0.581,0-1.054-0.473-1.054-1.053V21.17z M92,71.116c0,2.013-1.637,3.65-3.65,3.65  H55.645c-0.829,0-1.5,0.671-1.5,1.5c0,0.002,0.001,0.004,0.001,0.005s-0.001,0.004-0.001,0.005c0,1.989-1.618,3.607-3.607,3.607  h-1.075c-1.989,0-3.607-1.618-3.607-3.618c0-0.829-0.671-1.5-1.5-1.5H11.65c-2.013,0-3.65-1.637-3.65-3.65V28.067  c0-1.478,0.887-2.747,2.153-3.321v43.998c0,2.235,1.818,4.053,4.054,4.053h33.24c0.367,0,0.715-0.065,1.053-0.156v3.091  c0,0.829,0.671,1.5,1.5,1.5s1.5-0.671,1.5-1.5v-3.091c0.338,0.092,0.687,0.156,1.053,0.156h33.24c2.235,0,4.054-1.818,4.054-4.053  V24.747C91.113,25.32,92,26.589,92,28.067V71.116z"/><text x="0" y="115" fill="#000000" font-size="5px" font-weight="bold" font-family="'Helvetica Neue', Helvetica, Arial-Unicode, Arial, Sans-serif">Created by Maxim Kulikov</text><text x="0" y="120" fill="#000000" font-size="5px" font-weight="bold" font-family="'Helvetica Neue', Helvetica, Arial-Unicode, Arial, Sans-serif">from the Noun Project</text></svg>