<svg xmlns="http://www.w3.org/2000/svg" data-name="Layer 1" viewBox="0 0 100 125" x="0px" y="0px"><title>Artboard 3</title><path d="M41.32,41.44h19.3a5.52,5.52,0,0,0,5.51-5.51V29.31a5.52,5.52,0,0,0-5.51-5.51H41.32a5.52,5.52,0,0,0-5.51,5.51v6.62A5.52,5.52,0,0,0,41.32,41.44ZM40.8,29.31a.52.52,0,0,1,.51-.51h19.3a.51.51,0,0,1,.51.51v6.62a.51.51,0,0,1-.51.51H41.32a.52.52,0,0,1-.51-.51Z"/><path d="M50.82,59H41.58a5.78,5.78,0,0,0-5.78,5.78V70.9a5.78,5.78,0,0,0,5.78,5.78h9.24A5.78,5.78,0,0,0,56.6,70.9V64.81A5.78,5.78,0,0,0,50.82,59ZM51.6,70.9a.78.78,0,0,1-.78.78H41.58a.78.78,0,0,1-.78-.78V64.81a.78.78,0,0,1,.78-.78h9.24a.78.78,0,0,1,.78.78Z"/><path d="M83.79,48H38.3a2.5,2.5,0,0,0,0,5H83.79a2.5,2.5,0,0,0,0-5Z"/><path d="M83.79,59.51H64.29a2.5,2.5,0,0,0,0,5h19.5a2.5,2.5,0,0,0,0-5Z"/><path d="M83.79,71H64.29a2.5,2.5,0,0,0,0,5h19.5a2.5,2.5,0,0,0,0-5Z"/><path d="M78.74,13a8.87,8.87,0,0,0-6.31-2.61H30.49a6.94,6.94,0,0,0-6.93,6.93V33.5L6.14,38.81a7.28,7.28,0,0,0-4.85,9L11.74,83.44a8.63,8.63,0,0,0,8,6.16H90.39A8.62,8.62,0,0,0,99,81V37a8.87,8.87,0,0,0-2.62-6.31ZM90.46,31.8H79.8a2.21,2.21,0,0,1-2.21-2.21V18.92ZM20,84.61h0A3.6,3.6,0,0,1,16.54,82L6.09,46.38A2.26,2.26,0,0,1,7.6,43.59l16-4.87V81A3.58,3.58,0,0,1,20,84.61ZM94,81a3.62,3.62,0,0,1-3.61,3.61H27.78A8.54,8.54,0,0,0,28.56,81V17.32a1.93,1.93,0,0,1,1.93-1.93H72.43l.16,0V29.59A7.22,7.22,0,0,0,79.8,36.8H94c0,.05,0,.11,0,.16Z"/><text x="0" y="115" fill="#000000" font-size="5px" font-weight="bold" font-family="'Helvetica Neue', Helvetica, Arial-Unicode, Arial, Sans-serif">Created by Gregor Cresnar</text><text x="0" y="120" fill="#000000" font-size="5px" font-weight="bold" font-family="'Helvetica Neue', Helvetica, Arial-Unicode, Arial, Sans-serif">from the Noun Project</text></svg>